<svg xmlns="http://www.w3.org/2000/svg" width="256" height="256" viewBox="0 0 100 100"><rect width="100" height="100" rx="20" fill="#fffeee"></rect><path fill="#000000" d="M5.32 76.27L5.32 76.27Q6.70 72.83 9.24 68.27Q11.77 63.72 13.66 60.88L13.66 60.88L15.56 58.13Q16.76 56.41 17.96 56.41L17.96 56.41Q18.91 56.41 18.91 57.35L18.91 57.35L18.65 58.21Q15.56 66.04 15.56 71.71L15.56 71.71Q15.56 76.27 17.58 79.15Q19.60 82.03 23.90 82.03L23.90 82.03Q30.35 82.03 34.30 76.40Q38.26 70.77 38.26 64.23L38.26 64.23Q38.26 58.64 34.43 48.28Q30.61 37.92 30.61 34.22L30.61 34.22Q30.61 26.22 37.44 21.36Q44.28 16.50 52.45 16.50L52.45 16.50Q53.91 16.50 55.33 16.67Q56.75 16.85 58.47 17.23Q60.19 17.62 61.22 18.48Q62.26 19.34 62.26 20.63L62.26 20.63Q62.26 22.35 59.85 26.48Q57.44 30.61 55.81 32.76L55.81 32.76Q55.20 33.19 54.77 33.19L54.77 33.19Q54.17 33.19 54.17 32.15L54.17 32.15Q54.17 29.75 54.69 25.62L54.69 25.62Q54.69 18.91 49.53 18.91L49.53 18.91Q45.14 18.91 42.09 21.92Q39.04 24.93 39.04 29.23L39.04 29.23Q39.04 34.91 43.03 45.05Q47.03 55.20 47.03 60.71L47.03 60.71Q47.03 71.03 38.91 77.69Q30.78 84.36 20.63 84.36L20.63 84.36Q18.91 84.36 16.50 84.01Q14.09 83.67 11.43 82.94Q8.76 82.21 6.91 80.79Q5.06 79.37 5.06 77.56L5.06 77.56Q5.06 76.88 5.32 76.27ZM70.60 15.64L70.60 15.64Q81.78 15.64 88.36 22.61Q94.94 29.57 94.94 41.53L94.94 41.53Q94.94 48.75 91.41 56.36Q87.88 63.97 82.03 70.17Q76.19 76.36 67.76 80.31Q59.33 84.27 50.30 84.27L50.30 84.27Q48.58 84.27 46.95 84.14Q45.31 84.01 44.63 83.93L44.63 83.93L43.85 83.75Q42.48 83.41 42.48 82.38L42.48 82.38L42.73 81.52Q43.59 79.45 45.18 75.84Q46.77 72.23 52.58 61.65Q58.39 51.07 65.01 41.18L65.01 41.18Q71.20 31.90 74.81 28.28L74.81 28.28Q76.02 26.99 76.79 26.99L76.79 26.99Q77.39 26.99 77.39 28.03L77.39 28.03Q77.39 28.71 77.31 28.89L77.31 28.89Q76.53 32.24 71.80 41.53L71.80 41.53Q56.15 69.22 52.19 80.06L52.19 80.06Q52.11 80.31 52.11 80.66L52.11 80.66Q52.11 81.52 52.80 81.60L52.80 81.60Q53.31 81.69 54.34 81.69L54.34 81.69Q61.91 81.69 69.95 74.38Q77.99 67.07 83.24 56.11Q88.49 45.14 88.49 35.25L88.49 35.25Q88.49 28.03 84.36 23.17Q80.23 18.31 73.18 18.31L73.18 18.31Q69.56 18.31 67.20 20.29Q64.84 22.26 64.84 26.05L64.84 26.05Q64.84 29.06 66.64 32.24L66.64 32.24Q66.81 32.76 66.81 33.27L66.81 33.27Q66.81 33.96 66.30 33.96L66.30 33.96Q66.04 33.96 65.52 33.70L65.52 33.70Q63.55 32.67 61.14 29.40Q58.73 26.13 58.73 22.61L58.73 22.61Q58.73 19.86 60.79 18.22Q62.86 16.59 65.27 16.12Q67.67 15.64 70.60 15.64Z"></path></svg>