<svg width="51" height="55" viewBox="0 0 51 55" fill="none" xmlns="http://www.w3.org/2000/svg">
<path d="M44.8479 1C45.3245 4.21207 45.4831 10.7913 43.0089 16.3242C39.757 23.5962 35.1936 27.6047 30.8194 31.5614C26.6041 35.3742 21.9074 38.2477 16.1988 40.1415C14.8043 40.5529 13.6637 41.1309 11.8761 41.6067C10.0885 42.0826 7.68853 42.4387 5.21584 42.8056" stroke="#E01A1A" stroke-width="1.01008" stroke-linecap="round"/>
<path d="M18.7944 53.1898C18.1835 52.8169 16.9855 52.2519 15.9762 51.4244C14.8142 50.4717 13.261 49.7331 11.8966 49.0057C9.73707 47.8545 8.23544 46.5752 6.99228 45.4514C5.94507 44.5048 5.47748 43.7202 5.21355 43.2023C4.6685 42.1328 6.65394 41.0354 7.35903 39.8125C8.25276 38.2623 9.63815 36.6834 10.7188 35.4983C12.2672 33.6825 13.0329 33.1975 13.4723 32.7149C13.6679 32.4527 13.8081 32.1555 14.4584 31.4949" stroke="#E01A1A" stroke-linecap="round"/>
</svg>
