<svg width="47" height="50" viewBox="0 0 47 50" fill="none" xmlns="http://www.w3.org/2000/svg">
<path d="M0.879883 1.24316C0.879883 4.49041 1.68863 11.0217 4.94813 16.1315C9.23216 22.8474 14.3345 26.1428 19.2421 29.4145C23.9714 32.5674 29.039 34.7204 34.9637 35.7558C36.4035 35.958 37.6166 36.3624 39.4547 36.5707C41.2927 36.779 43.719 36.779 46.2187 36.779" stroke="#E01A1A" stroke-width="1.01008" stroke-linecap="round"/>
<path d="M34.3115 49.0437C34.8612 48.5852 35.9632 47.8505 36.8402 46.8838C37.8498 45.7708 39.2777 44.8123 40.5206 43.8925C42.4877 42.4368 43.7853 40.9509 44.8501 39.6569C45.747 38.5669 46.0944 37.7221 46.2794 37.1711C46.6616 36.0331 44.5366 35.239 43.6596 34.1328C42.5481 32.7307 40.9459 31.3722 39.703 30.3585C37.9049 28.7897 37.0763 28.4223 36.5709 28.0094C36.3389 27.7788 36.1566 27.5053 35.4163 26.9474" stroke="#E01A1A" stroke-linecap="round"/>
</svg>
