<svg width="381" height="42" viewBox="0 0 381 42" fill="none" xmlns="http://www.w3.org/2000/svg">
<g filter="url(#filter0_d_76_1041)">
<path d="M5 32.7876C6.27732 32.3639 8.83837 30.6566 11.4091 29.4755C14.1628 28.2104 16.5408 26.5871 19.1115 25.1975C21.7695 23.7606 24.8851 22.3123 27.4558 21.2372C29.9557 20.1916 32.5875 19.5266 35.6909 18.6697C38.5981 17.867 41.5737 17.3827 44.1444 16.85C46.6811 16.3243 56.4779 16.099 63.394 16.6318C69.1722 17.0768 72.5888 17.3827 75.7018 17.9155C78.7802 18.4423 81.3695 18.6665 83.9402 19.3051C86.9128 20.0437 90.3557 20.3738 93.4591 21.1248C96.0823 21.7596 98.7 22.2995 102.869 22.6236C106.058 22.8715 110.241 23.8014 113.572 24.3342C116.864 24.8607 121.153 25.0852 129.673 25.6179C146.807 26.6892 159.042 25.5152 160.323 25.0884C162.837 24.2502 165.454 24.0197 168.025 23.2687C170.512 22.5422 173.157 22.0941 175.727 21.3431C178.214 20.6166 180.859 19.7448 183.536 18.5638C187.897 16.6392 190.924 11.6188 191.675 8.83626C191.9 8.00229 191.784 6.92028 191.466 6.16288C190.293 3.36604 186.662 2.838 183.558 2.08701C180.935 1.45223 178.317 0.912392 174.893 1.01188C169.16 1.17844 174.659 16.0862 176.372 18.6568C178.319 21.5763 181.501 24.0068 184.072 25.6147C186.469 27.1142 189.203 28.0763 191.774 28.9332C195.074 30.0331 202.015 28.3073 216.117 27.4408C227.993 26.7111 234.34 25.0852 240.222 24.0197C244.573 23.2317 247.613 22.7359 250.717 22.4118C253.435 22.1279 256.381 21.4522 259.17 20.5953C261.953 19.7402 267.062 18.4611 271.042 17.3859C275.326 16.2286 279.27 16.3172 282.278 15.9931C283.589 15.8517 286.331 15.4571 289.964 15.3512C292.346 15.2818 302.095 14.8153 315.998 14.9212C324.014 14.9822 328.271 15.8808 332.764 16.2049C336.476 16.4727 339.401 17.3827 342.077 18.0214C345.212 18.7694 347.745 19.732 350.848 20.5889C353.56 21.3377 356.089 22.7231 358.978 23.4773C363.473 24.6511 365.717 26.7925 368.394 27.7553C369.992 28.4999 371.5 29.36 372.781 30.1078C373.426 30.4319 374.062 30.6437 376 31.5038" stroke="black" stroke-linecap="round" shape-rendering="crispEdges"/>
</g>
<defs>
<filter id="filter0_d_76_1041" x="0.499878" y="0.5" width="380" height="40.7877" filterUnits="userSpaceOnUse" color-interpolation-filters="sRGB">
<feFlood flood-opacity="0" result="BackgroundImageFix"/>
<feColorMatrix in="SourceAlpha" type="matrix" values="0 0 0 0 0 0 0 0 0 0 0 0 0 0 0 0 0 0 127 0" result="hardAlpha"/>
<feOffset dy="4"/>
<feGaussianBlur stdDeviation="2"/>
<feComposite in2="hardAlpha" operator="out"/>
<feColorMatrix type="matrix" values="0 0 0 0 0 0 0 0 0 0 0 0 0 0 0 0 0 0 0.25 0"/>
<feBlend mode="normal" in2="BackgroundImageFix" result="effect1_dropShadow_76_1041"/>
<feBlend mode="normal" in="SourceGraphic" in2="effect1_dropShadow_76_1041" result="shape"/>
</filter>
</defs>
</svg>
